<?xml version="1.0" encoding="utf-8"?>
<!-- Svg Vector Icons : http://www.onlinewebfonts.com/icon -->
<!DOCTYPE svg PUBLIC "-//W3C//DTD SVG 1.1//EN" "http://www.w3.org/Graphics/SVG/1.1/DTD/svg11.dtd">
<svg version="1.1" xmlns="http://www.w3.org/2000/svg" xmlns:xlink="http://www.w3.org/1999/xlink" x="0px" y="0px" viewBox="0 0 1000 1000" enable-background="new 0 0 1000 1000" xml:space="preserve">
<metadata> Svg Vector Icons : http://www.onlinewebfonts.com/icon </metadata>
<g><path d="M809.9,89.9L233.6,364.7l-182-58.2C25.8,318.7,10,326.3,10,326.3s86.2,102.7,155.9,158.9c33.9,27.3,225.5-21.7,310.6-62.3l442-210.8c51.8-24.7,81.1-74,68.6-99.7C968.3,73.3,861.1,65.4,809.9,89.9z"/><path d="M585,708.9c-2.4,6.8-9.7,14.9-16.2,18l-71.2,34c-6.5,3.1-11.2-0.2-10.5-7.3l39-370.9c0.8-7.1,6.7-15.5,13.2-18.7l189.9-90.5c6.5-3.1,9.9-0.1,7.5,6.7L585,708.9z"/><path d="M224.2,149.5l156.5,99.9l153.8-73.3l-213.9-74.6c-6.8-2.4-17.8-1.8-24.3,1.3l-71.2,34C218.5,139.8,218.1,145.6,224.2,149.5z"/><path d="M53.7,924.1v-58.2h887.7v58.2H53.7"/></g>
</svg>